<svg width="23" height="31" viewBox="0 0 23 31" fill="none" xmlns="http://www.w3.org/2000/svg">
<path d="M16.7156 0.613037H22.0303V29.4553H16.7156V27.0215C15.1514 29.0265 12.9272 30.0289 10.0429 30.0289C8.70312 30.0405 7.37637 29.7647 6.15211 29.2202C4.92785 28.6758 3.83453 27.8752 2.9458 26.8725C0.981934 24.7703 0 22.195 0 19.1466C0 16.0982 0.981934 13.524 2.9458 11.424C3.83584 10.4217 4.93048 9.62181 6.1559 9.07843C7.38131 8.53504 8.709 8.26075 10.0494 8.27406C12.9337 8.27406 15.1579 9.27652 16.722 11.2814L16.7156 0.613037ZM6.93511 23.3271C7.47108 23.8626 8.11103 24.2826 8.81553 24.5613C9.52002 24.84 10.2741 24.9714 11.0314 24.9475C11.7862 24.9715 12.5379 24.84 13.2397 24.5613C13.9416 24.2825 14.5787 23.8624 15.1114 23.3271C16.1444 22.1797 16.716 20.6905 16.716 19.1466C16.716 17.6027 16.1444 16.1135 15.1114 14.9661C14.5787 14.4308 13.9416 14.0107 13.2397 13.732C12.5379 13.4532 11.7862 13.3218 11.0314 13.3458C10.2742 13.3224 9.52026 13.4541 8.81585 13.7328C8.11143 14.0114 7.47142 14.4311 6.93511 14.9661C5.88844 16.1068 5.30773 17.5985 5.30773 19.1466C5.30773 20.6947 5.88844 22.1865 6.93511 23.3271Z" fill="#0070DF"/>
</svg>
